# xmcd CD database file
#
# Track frame offsets:
#	150
#	14127
#	25021
#	35929
#	51669
#	65278
#	79096
#	91210
#	107516
#	125570
#	144008
#	161038
#
# Disc length: 2238 seconds
#
# Revision: 0
# Processed by: cddbd v1.5.2PL0 Copyright (c) Steve Scherf et al.
# Submitted via: CDex 1.51
#
DISCID=a008bc0c
DTITLE=francoise hardy - the essential francoise hardy
DYEAR=2008
DGENRE=Blues
TTITLE0=ma jeunesse fout le camp
TTITLE1=des ronds dans l'eau
TTITLE2=comment te dire adieu
TTITLE3=a quoi ca sert
TTITLE4=la question
TTITLE5=si mi caballero
TTITLE6=l'eclairage
TTITLE7=ou est-il
TTITLE8=les madeleines
TTITLE9=dix heures en ete
TTITLE10=puisque vous partez en voyage
TTITLE11=till the morning comes
EXTD=YEAR: 2008
EXTT0=
EXTT1=
EXTT2=
EXTT3=
EXTT4=
EXTT5=
EXTT6=
EXTT7=
EXTT8=
EXTT9=
EXTT10=
EXTT11=
PLAYORDER=
